<svg width="650" height="113" viewBox="0 0 650 113" fill="none" xmlns="http://www.w3.org/2000/svg" xmlns:xlink="http://www.w3.org/1999/xlink">
 <path d="M207.909 98.3617L181.993 64.0895L175.263 72.056V98.3617H157.086V12.7789H175.263V51.018L205.6 12.7789H228.069L194.057 52.9365L230.378 98.3617H207.909Z" fill="#202832">
 </path>
 <path d="M311.798 98.3617L306.531 83.2091H269.82L264.422 98.3617H243.644L276.746 12.7789H299.605L332.576 98.3617H311.798ZM288.192 30.988L274.86 68.024H301.556L288.192 30.988Z" fill="#202832">
 </path>
 <path d="M345.583 91.5658L353.549 77.5838C356.898 80.8029 361.256 83.7294 367.141 83.7294C375.238 83.7294 380.278 78.3317 380.278 70.0075L380.245 12.7789H398.649V70.2676C398.649 90.5253 386.098 99.8899 368.539 99.8899C359.955 99.8899 351.728 97.5813 345.583 91.5658Z" fill="#202832">
 </path>
 <path d="M487.289 98.3617L482.021 84.2821H445.31L439.912 98.3617H419.134L452.236 12.7789H475.095L508.066 98.3617H487.289ZM463.682 30.988L450.318 66.9185H477.013L463.682 30.988Z" fill="#202832">
 </path>
 <path d="M528.682 98.3617V12.7789H574.205C590.495 12.7789 598.852 23.1841 598.852 34.5973C598.852 45.3602 592.186 52.5463 584.089 54.2371C593.194 55.6353 600.51 64.5123 600.51 75.2751C600.51 88.1191 591.926 98.3617 575.603 98.3617H528.682ZM580.22 37.7839C580.22 32.3862 576.383 29.0045 570.205 29.0045H547.053V47.4087H570.205C576.383 47.4412 580.22 43.1816 580.22 37.7839ZM581.911 72.7064C581.911 67.3087 578.074 62.6263 570.888 62.6263H547.118V82.1361H570.888C577.781 82.1036 581.911 78.8519 581.911 72.7064Z" fill="#202832">
 </path>
 <path d="M631.823 98.3617V12.7789H650V98.3617H631.823Z" fill="#202832">
 </path>
 <path d="M0 112.669V0H112.669L0 112.669Z" fill="#0072EF">
 </path>
 <path d="M22.5338 112.669L67.6013 67.6013L112.669 112.669H22.5338Z" fill="#0072EF">
 </path>
</svg>