<svg xmlns="http://www.w3.org/2000/svg" xmlns:xlink="http://www.w3.org/1999/xlink" width="500" zoomAndPan="magnify" viewBox="0 0 375 108.749999" height="145" preserveAspectRatio="xMidYMid meet" version="1.0"><defs><g/><clipPath id="542ccfd58f"><path d="M 11.28125 10.851562 L 365.964844 10.851562 L 365.964844 97.652344 L 11.28125 97.652344 Z M 11.28125 10.851562 " clip-rule="nonzero"/></clipPath><clipPath id="2c1e4f4568"><path d="M 54.679688 10.851562 L 322.648438 10.851562 C 346.617188 10.851562 366.046875 30.28125 366.046875 54.25 C 366.046875 78.21875 346.617188 97.648438 322.648438 97.648438 L 54.679688 97.648438 C 30.710938 97.648438 11.28125 78.21875 11.28125 54.25 C 11.28125 30.28125 30.710938 10.851562 54.679688 10.851562 Z M 54.679688 10.851562 " clip-rule="nonzero"/></clipPath><clipPath id="91404ca6c7"><path d="M 18.382812 16.921875 L 257.226562 16.921875 L 257.226562 91.578125 L 18.382812 91.578125 Z M 18.382812 16.921875 " clip-rule="nonzero"/></clipPath><clipPath id="4acf70cd1f"><path d="M 55.710938 16.921875 L 219.875 16.921875 C 240.492188 16.921875 257.203125 33.632812 257.203125 54.25 C 257.203125 74.867188 240.492188 91.578125 219.875 91.578125 L 55.710938 91.578125 C 35.097656 91.578125 18.382812 74.867188 18.382812 54.25 C 18.382812 33.632812 35.097656 16.921875 55.710938 16.921875 Z M 55.710938 16.921875 " clip-rule="nonzero"/></clipPath></defs><g clip-path="url(#542ccfd58f)"><g clip-path="url(#2c1e4f4568)"><path stroke-linecap="butt" transform="matrix(0.74828, 0, 0, 0.74828, 11.280106, 10.850686)" fill="none" stroke-linejoin="miter" d="M 57.999134 0.00117091 L 416.112157 0.00117091 C 448.143958 0.00117091 474.109762 25.966975 474.109762 57.998776 C 474.109762 90.030576 448.143958 115.996381 416.112157 115.996381 L 57.999134 115.996381 C 25.967333 115.996381 0.00152864 90.030576 0.00152864 57.998776 C 0.00152864 25.966975 25.967333 0.00117091 57.999134 0.00117091 Z M 57.999134 0.00117091 " stroke="#000000" stroke-width="6" stroke-opacity="1" stroke-miterlimit="4"/></g></g><g clip-path="url(#91404ca6c7)"><g clip-path="url(#4acf70cd1f)"><path fill="#000000" d="M 18.382812 16.921875 L 257.226562 16.921875 L 257.226562 91.578125 L 18.382812 91.578125 Z M 18.382812 16.921875 " fill-opacity="1" fill-rule="nonzero"/></g></g><g fill="#ffffff" fill-opacity="1"><g transform="translate(44.129548, 73.245707)"><g><path d="M 4.8125 0 L 13.9375 0 L 13.9375 -13.828125 L 28.515625 -13.828125 L 28.515625 -21.859375 L 13.9375 -21.859375 L 13.9375 -31.90625 L 30 -31.90625 L 30 -40.15625 L 4.8125 -40.15625 Z M 4.8125 0 "/></g></g></g><g fill="#ffffff" fill-opacity="1"><g transform="translate(81.021914, 73.245707)"><g><path d="M 23.875 0.796875 C 36.4375 0.796875 45.328125 -7.796875 45.328125 -20.078125 C 45.328125 -32.359375 36.4375 -40.96875 23.875 -40.96875 C 11.296875 -40.96875 2.46875 -32.359375 2.46875 -20.078125 C 2.46875 -7.796875 11.296875 0.796875 23.875 0.796875 Z M 11.765625 -20.078125 C 11.765625 -27.3125 16.75 -32.296875 23.875 -32.296875 C 31.046875 -32.296875 35.96875 -27.3125 35.96875 -20.078125 C 35.96875 -12.859375 31.046875 -7.859375 23.875 -7.859375 C 16.75 -7.859375 11.765625 -12.859375 11.765625 -20.078125 Z M 11.765625 -20.078125 "/></g></g></g><g fill="#ffffff" fill-opacity="1"><g transform="translate(133.176026, 73.245707)"><g><path d="M 4.8125 0 L 13.890625 0 L 13.890625 -24.21875 L 23.640625 -9.921875 L 29.953125 -9.921875 L 39.703125 -24.15625 L 39.703125 0 L 48.765625 0 L 48.765625 -40.15625 L 41.078125 -40.15625 L 26.84375 -19.328125 L 12.5625 -40.15625 L 4.8125 -40.15625 Z M 4.8125 0 "/></g></g></g><g fill="#ffffff" fill-opacity="1"><g transform="translate(191.125002, 73.245707)"><g><path d="M 23.875 0.796875 C 36.4375 0.796875 45.328125 -7.796875 45.328125 -20.078125 C 45.328125 -32.359375 36.4375 -40.96875 23.875 -40.96875 C 11.296875 -40.96875 2.46875 -32.359375 2.46875 -20.078125 C 2.46875 -7.796875 11.296875 0.796875 23.875 0.796875 Z M 11.765625 -20.078125 C 11.765625 -27.3125 16.75 -32.296875 23.875 -32.296875 C 31.046875 -32.296875 35.96875 -27.3125 35.96875 -20.078125 C 35.96875 -12.859375 31.046875 -7.859375 23.875 -7.859375 C 16.75 -7.859375 11.765625 -12.859375 11.765625 -20.078125 Z M 11.765625 -20.078125 "/></g></g></g><g fill="#000000" fill-opacity="1"><g transform="translate(263.156982, 73.245707)"><g><path d="M 7.796875 0.75 C 11.359375 0.75 13.890625 -1.78125 13.890625 -5.21875 C 13.890625 -8.65625 11.359375 -11.1875 7.796875 -11.1875 C 4.1875 -11.1875 1.65625 -8.65625 1.65625 -5.21875 C 1.65625 -1.78125 4.1875 0.75 7.796875 0.75 Z M 7.796875 0.75 "/></g></g></g><g fill="#000000" fill-opacity="1"><g transform="translate(278.7056, 73.245707)"><g><path d="M 13.9375 0.6875 C 18.296875 0.6875 21.96875 -0.75 24.5625 -3.328125 L 25.765625 0 L 33.671875 0 L 33.671875 -17.671875 C 33.671875 -26.328125 28.234375 -31.21875 18.46875 -31.21875 C 9.984375 -31.21875 4.875 -27.375 3.953125 -20.375 L 14.28125 -20.375 C 14.578125 -22.140625 16.296875 -23.359375 18.53125 -23.359375 C 21 -23.359375 22.953125 -21.921875 22.953125 -19.90625 L 22.953125 -18.1875 L 12.734375 -18.1875 C 6.484375 -18.1875 2.46875 -14.453125 2.46875 -8.890625 C 2.46875 -2.984375 6.9375 0.6875 13.9375 0.6875 Z M 13.25 -9.40625 C 13.25 -11.125 14.75 -12.15625 17.09375 -12.15625 L 23.0625 -12.15625 C 23.0625 -8.828125 20.546875 -6.59375 17.21875 -6.59375 C 14.859375 -6.59375 13.25 -7.6875 13.25 -9.40625 Z M 13.25 -9.40625 "/></g></g></g><g fill="#000000" fill-opacity="1"><g transform="translate(315.655078, 73.245707)"><g><path d="M 3.84375 0 L 14.859375 0 L 14.859375 -30.34375 L 3.84375 -30.34375 Z M 2.75 -40.734375 C 2.75 -36.953125 5.515625 -34.3125 9.359375 -34.3125 C 13.203125 -34.3125 15.953125 -36.953125 15.953125 -40.734375 C 15.953125 -44.515625 13.203125 -47.109375 9.359375 -47.109375 C 5.515625 -47.109375 2.75 -44.515625 2.75 -40.734375 Z M 2.75 -40.734375 "/></g></g></g></svg>